<svg xmlns="http://www.w3.org/2000/svg" viewBox="0 0 300 400"> <defs> <linearGradient id="bg" x1="0" y1="0" x2="1" y2="1"> <stop offset="0%" stop-color="#1d4ed8" /> <stop offset="100%" stop-color="#0f766e" /> </linearGradient> <linearGradient id="sheen" x1="0" y1="0" x2="1" y2="1"> <stop offset="0%" stop-color="rgba(255,255,255,0.22)" /> <stop offset="100%" stop-color="rgba(255,255,255,0)" /> </linearGradient> </defs> <rect width="300" height="400" rx="20" fill="url(#bg)" /> <rect x="14" y="14" width="272" height="372" rx="18" fill="rgba(14,18,24,0.16)" stroke="rgba(255,255,255,0.24)" /> <rect x="24" y="24" width="252" height="52" rx="10" fill="rgba(8,10,16,0.28)" /> <text x="36" y="46" fill="#f6e7cb" font-size="10" font-family="Arial, sans-serif" letter-spacing="2">CONTES ET HERITAGES</text> <text x="36" y="64" fill="#ffffff" font-size="15" font-family="Arial, sans-serif" font-weight="700">ROSSATANGA-RIGNAULT</text> <circle cx="44" cy="106" r="16" fill="rgba(255,255,255,0.08)" /> <circle cx="180" cy="161" r="36" fill="rgba(255,255,255,0.06)" /> <path d="M34 280 L179 280" stroke="#f6e7cb" stroke-opacity="0.55" stroke-width="2.5" stroke-linecap="round" /> <rect x="34" y="104" width="232" height="168" rx="14" fill="rgba(12,14,20,0.24)" /> <circle cx="76" cy="120" r="36" fill="rgba(255,255,255,0.12)" /> <circle cx="232" cy="172" r="52" fill="rgba(255,255,255,0.08)" /> <path d="M42 274 Q96 230 150 252 T258 236" stroke="#f6e7cb" stroke-width="3" fill="none" /> <path d="M62 146 Q112 108 160 146" stroke="rgba(255,255,255,0.16)" stroke-width="2" fill="none" /> <text x="42" y="146" fill="#ffffff" font-size="30" font-family="Georgia, serif" font-weight="700">Figures d&apos;hier et</text><text x="42" y="180" fill="#ffffff" font-size="28" font-family="Georgia, serif" font-weight="700">d&apos;aujourd&apos;hui</text> <rect x="34" y="292" width="160" height="3" rx="2" fill="#f6e7cb" fill-opacity="0.9" /> <text x="36" y="324" fill="#f7f4ee" font-size="18" font-family="Arial, sans-serif" font-weight="700">Rossatanga-Rignault</text> <text x="36" y="350" fill="rgba(255,255,255,0.78)" font-size="12" font-family="Arial, sans-serif" letter-spacing="1.4">HISTOIRE</text> <rect x="212" y="304" width="46" height="46" rx="8" fill="rgba(255,255,255,0.12)" /> <path d="M223 317h12c5 0 9 4 9 9v18h-12c-5 0-9-4-9-9v-18Zm21 0h-9v27h9c5 0 9-4 9-9v-9c0-5-4-9-9-9Z" fill="#fff7ed" /> <path d="M0 300 L300 190 L300 400 L0 400 Z" fill="url(#sheen)" /> </svg>