<svg xmlns="http://www.w3.org/2000/svg" viewBox="0 0 300 400"> <defs> <linearGradient id="bg" x1="0" y1="0" x2="1" y2="1"> <stop offset="0%" stop-color="#be185d" /> <stop offset="100%" stop-color="#f97316" /> </linearGradient> <linearGradient id="sheen" x1="0" y1="0" x2="1" y2="1"> <stop offset="0%" stop-color="rgba(255,255,255,0.22)" /> <stop offset="100%" stop-color="rgba(255,255,255,0)" /> </linearGradient> </defs> <rect width="300" height="400" rx="20" fill="url(#bg)" /> <rect x="14" y="14" width="272" height="372" rx="18" fill="rgba(14,18,24,0.16)" stroke="rgba(255,255,255,0.24)" /> <rect x="24" y="24" width="252" height="52" rx="10" fill="rgba(8,10,16,0.28)" /> <text x="36" y="46" fill="#f6e7cb" font-size="10" font-family="Arial, sans-serif" letter-spacing="2">VOYAGE INTERIEUR</text> <text x="36" y="64" fill="#ffffff" font-size="15" font-family="Arial, sans-serif" font-weight="700">SENGHOR</text> <circle cx="88" cy="130" r="14" fill="rgba(255,255,255,0.08)" /> <circle cx="204" cy="176" r="41" fill="rgba(255,255,255,0.06)" /> <path d="M34 279 L205 279" stroke="#f6e7cb" stroke-opacity="0.55" stroke-width="2.5" stroke-linecap="round" /> <rect x="34" y="108" width="232" height="164" rx="26" fill="rgba(12,14,20,0.20)" /> <path d="M36 256 C78 236, 110 208, 144 194 S214 162, 266 124" stroke="#f6e7cb" stroke-width="4" fill="none" stroke-linecap="round" /> <circle cx="92" cy="216" r="10" fill="rgba(255,255,255,0.14)" /> <circle cx="190" cy="166" r="14" fill="rgba(255,255,255,0.1)" /> <circle cx="248" cy="132" r="18" fill="rgba(255,255,255,0.12)" /> <text x="42" y="146" fill="#ffffff" font-size="30" font-family="Georgia, serif" font-weight="700">Les aventures de</text><text x="42" y="180" fill="#ffffff" font-size="28" font-family="Georgia, serif" font-weight="700">Leuk-le-lièvre</text> <path d="M34 286 Q150 244 266 286" fill="none" stroke="#f6e7cb" stroke-width="3" stroke-opacity="0.75" /> <text x="36" y="324" fill="#f7f4ee" font-size="18" font-family="Arial, sans-serif" font-weight="700">Léopold Sédar Senghor</text> <text x="36" y="350" fill="rgba(255,255,255,0.78)" font-size="12" font-family="Arial, sans-serif" letter-spacing="1.4">JEUNESSE</text> <rect x="212" y="304" width="46" height="46" rx="8" fill="rgba(255,255,255,0.12)" /> <path d="M223 317h12c5 0 9 4 9 9v18h-12c-5 0-9-4-9-9v-18Zm21 0h-9v27h9c5 0 9-4 9-9v-9c0-5-4-9-9-9Z" fill="#fff7ed" /> <path d="M0 300 L300 190 L300 400 L0 400 Z" fill="url(#sheen)" /> </svg>