<svg xmlns="http://www.w3.org/2000/svg" viewBox="0 0 300 400"> <defs> <linearGradient id="bg" x1="0" y1="0" x2="1" y2="1"> <stop offset="0%" stop-color="#9d174d" /> <stop offset="100%" stop-color="#fb7185" /> </linearGradient> <linearGradient id="sheen" x1="0" y1="0" x2="1" y2="1"> <stop offset="0%" stop-color="rgba(255,255,255,0.22)" /> <stop offset="100%" stop-color="rgba(255,255,255,0)" /> </linearGradient> </defs> <rect width="300" height="400" rx="20" fill="url(#bg)" /> <rect x="14" y="14" width="272" height="372" rx="18" fill="rgba(14,18,24,0.16)" stroke="rgba(255,255,255,0.24)" /> <rect x="24" y="24" width="252" height="52" rx="10" fill="rgba(8,10,16,0.28)" /> <text x="36" y="46" fill="#f6e7cb" font-size="10" font-family="Arial, sans-serif" letter-spacing="2">FORET ET MEMOIRE</text> <text x="36" y="64" fill="#ffffff" font-size="15" font-family="Arial, sans-serif" font-weight="700">MARPEAU</text> <circle cx="68" cy="160" r="24" fill="rgba(255,255,255,0.08)" /> <circle cx="234" cy="144" r="22" fill="rgba(255,255,255,0.06)" /> <path d="M34 290 L130 290" stroke="#f6e7cb" stroke-opacity="0.55" stroke-width="2.5" stroke-linecap="round" /> <rect x="34" y="98" width="232" height="182" rx="6" fill="rgba(255,255,255,0.08)" /> <rect x="34" y="98" width="14" height="182" rx="6" fill="#f6e7cb" fill-opacity="0.85" /> <line x1="62" y1="132" x2="248" y2="132" stroke="rgba(255,255,255,0.18)" /> <circle cx="232" cy="122" r="62" fill="rgba(255,255,255,0.08)" /> <path d="M42 276 C72 214, 108 186, 146 130" stroke="#f6e7cb" stroke-opacity="0.42" stroke-width="4" fill="none" /> <path d="M82 278 C108 224, 148 182, 198 126" stroke="rgba(255,255,255,0.14)" stroke-width="3" fill="none" /> <circle cx="94" cy="146" r="20" fill="rgba(255,255,255,0.08)" /> <text x="42" y="146" fill="#ffffff" font-size="30" font-family="Georgia, serif" font-weight="700">Gynécologie</text> <circle cx="230" cy="316" r="22" fill="rgba(255,255,255,0.1)" /> <text x="36" y="324" fill="#f7f4ee" font-size="18" font-family="Arial, sans-serif" font-weight="700">Marpeau</text> <text x="36" y="350" fill="rgba(255,255,255,0.78)" font-size="12" font-family="Arial, sans-serif" letter-spacing="1.4">SAN-EMA</text> <rect x="212" y="304" width="46" height="46" rx="8" fill="rgba(255,255,255,0.12)" /> <path d="M223 317h12c5 0 9 4 9 9v18h-12c-5 0-9-4-9-9v-18Zm21 0h-9v27h9c5 0 9-4 9-9v-9c0-5-4-9-9-9Z" fill="#fff7ed" /> <path d="M0 300 L300 190 L300 400 L0 400 Z" fill="url(#sheen)" /> </svg>