<svg xmlns="http://www.w3.org/2000/svg" viewBox="0 0 300 400"> <defs> <linearGradient id="bg" x1="0" y1="0" x2="1" y2="1"> <stop offset="0%" stop-color="#365314" /> <stop offset="100%" stop-color="#84cc16" /> </linearGradient> <linearGradient id="sheen" x1="0" y1="0" x2="1" y2="1"> <stop offset="0%" stop-color="rgba(255,255,255,0.22)" /> <stop offset="100%" stop-color="rgba(255,255,255,0)" /> </linearGradient> </defs> <rect width="300" height="400" rx="20" fill="url(#bg)" /> <rect x="14" y="14" width="272" height="372" rx="18" fill="rgba(14,18,24,0.16)" stroke="rgba(255,255,255,0.24)" /> <rect x="24" y="24" width="252" height="52" rx="10" fill="rgba(8,10,16,0.28)" /> <text x="36" y="46" fill="#f6e7cb" font-size="10" font-family="Arial, sans-serif" letter-spacing="2">IDEES ET UNIVERS</text> <text x="36" y="64" fill="#ffffff" font-size="15" font-family="Arial, sans-serif" font-weight="700">BRADY</text> <circle cx="105" cy="157" r="27" fill="rgba(255,255,255,0.08)" /> <circle cx="231" cy="128" r="35" fill="rgba(255,255,255,0.06)" /> <path d="M34 303 L148 303" stroke="#f6e7cb" stroke-opacity="0.55" stroke-width="2.5" stroke-linecap="round" /> <rect x="34" y="98" width="232" height="182" rx="6" fill="rgba(255,255,255,0.08)" /> <rect x="34" y="98" width="14" height="182" rx="6" fill="#f6e7cb" fill-opacity="0.85" /> <line x1="62" y1="132" x2="248" y2="132" stroke="rgba(255,255,255,0.18)" /> <circle cx="226" cy="118" r="56" fill="rgba(255,255,255,0.1)" /> <circle cx="226" cy="118" r="28" fill="rgba(255,255,255,0.06)" /> <circle cx="92" cy="164" r="4" fill="#f6e7cb" /> <circle cx="118" cy="136" r="3" fill="rgba(255,255,255,0.9)" /> <circle cx="148" cy="182" r="2.5" fill="rgba(255,255,255,0.8)" /> <path d="M56 230 Q144 160 248 204" stroke="rgba(255,255,255,0.16)" stroke-width="2" fill="none" /> <text x="42" y="146" fill="#ffffff" font-size="30" font-family="Georgia, serif" font-weight="700">Science du sol</text> <circle cx="230" cy="316" r="22" fill="rgba(255,255,255,0.1)" /> <text x="36" y="324" fill="#f7f4ee" font-size="18" font-family="Arial, sans-serif" font-weight="700">Brady</text> <text x="36" y="350" fill="rgba(255,255,255,0.78)" font-size="12" font-family="Arial, sans-serif" letter-spacing="1.4">BAV-S2A</text> <rect x="212" y="304" width="46" height="46" rx="8" fill="rgba(255,255,255,0.12)" /> <path d="M223 317h12c5 0 9 4 9 9v18h-12c-5 0-9-4-9-9v-18Zm21 0h-9v27h9c5 0 9-4 9-9v-9c0-5-4-9-9-9Z" fill="#fff7ed" /> <path d="M0 300 L300 190 L300 400 L0 400 Z" fill="url(#sheen)" /> </svg>