<svg xmlns="http://www.w3.org/2000/svg" viewBox="0 0 300 400"> <defs> <linearGradient id="bg" x1="0" y1="0" x2="1" y2="1"> <stop offset="0%" stop-color="#1e1b4b" /> <stop offset="100%" stop-color="#8b5cf6" /> </linearGradient> <linearGradient id="sheen" x1="0" y1="0" x2="1" y2="1"> <stop offset="0%" stop-color="rgba(255,255,255,0.22)" /> <stop offset="100%" stop-color="rgba(255,255,255,0)" /> </linearGradient> </defs> <rect width="300" height="400" rx="20" fill="url(#bg)" /> <rect x="14" y="14" width="272" height="372" rx="18" fill="rgba(14,18,24,0.16)" stroke="rgba(255,255,255,0.24)" /> <rect x="24" y="24" width="252" height="52" rx="10" fill="rgba(8,10,16,0.28)" /> <text x="36" y="46" fill="#f6e7cb" font-size="10" font-family="Arial, sans-serif" letter-spacing="2">SYSTEMES ET RESEAUX</text> <text x="36" y="64" fill="#ffffff" font-size="15" font-family="Arial, sans-serif" font-weight="700">CORMEN</text> <circle cx="94" cy="116" r="16" fill="rgba(255,255,255,0.08)" /> <circle cx="190" cy="127" r="22" fill="rgba(255,255,255,0.06)" /> <path d="M34 297 L148 297" stroke="#f6e7cb" stroke-opacity="0.55" stroke-width="2.5" stroke-linecap="round" /> <rect x="34" y="100" width="232" height="176" rx="16" fill="rgba(7,10,18,0.28)" /> <rect x="42" y="116" width="210" height="148" rx="18" fill="rgba(7,10,18,0.2)" /> <circle cx="74" cy="146" r="7" fill="#f6e7cb" /> <circle cx="188" cy="136" r="7" fill="rgba(255,255,255,0.8)" /> <circle cx="230" cy="206" r="7" fill="rgba(255,255,255,0.8)" /> <circle cx="120" cy="232" r="7" fill="rgba(255,255,255,0.8)" /> <path d="M74 146 L188 136 L230 206 L120 232 Z" stroke="rgba(255,255,255,0.22)" stroke-width="2.5" fill="none" /> <rect x="42" y="110" width="84" height="10" rx="5" fill="#f6e7cb" fill-opacity="0.8" /> <text x="42" y="146" fill="#ffffff" font-size="30" font-family="Georgia, serif" font-weight="700">Algorithmes</text> <rect x="200" y="296" width="54" height="54" rx="10" fill="rgba(255,255,255,0.08)" /> <text x="36" y="324" fill="#f7f4ee" font-size="18" font-family="Arial, sans-serif" font-weight="700">Cormen</text> <text x="36" y="350" fill="rgba(255,255,255,0.78)" font-size="12" font-family="Arial, sans-serif" letter-spacing="1.4">GIF-GLO</text> <rect x="212" y="304" width="46" height="46" rx="8" fill="rgba(255,255,255,0.12)" /> <path d="M223 317h12c5 0 9 4 9 9v18h-12c-5 0-9-4-9-9v-18Zm21 0h-9v27h9c5 0 9-4 9-9v-9c0-5-4-9-9-9Z" fill="#fff7ed" /> <path d="M0 300 L300 190 L300 400 L0 400 Z" fill="url(#sheen)" /> </svg>